<svg width="100" height="88" viewBox="0 0 100 88" fill="none" xmlns="http://www.w3.org/2000/svg">
<path d="M79.0187 87.75C87.3687 87.75 93.75 80.5313 93.75 72.125V25.25H6.25V72.125C6.25 80.5313 12.6313 87.75 20.9813 87.75H79.0187ZM34.375 37.75H65.625C66.4538 37.75 67.2487 38.0792 67.8347 38.6653C68.4208 39.2513 68.75 40.0462 68.75 40.875C68.75 41.7038 68.4208 42.4987 67.8347 43.0847C67.2487 43.6708 66.4538 44 65.625 44H34.375C33.5462 44 32.7513 43.6708 32.1653 43.0847C31.5792 42.4987 31.25 41.7038 31.25 40.875C31.25 40.0462 31.5792 39.2513 32.1653 38.6653C32.7513 38.0792 33.5462 37.75 34.375 37.75V37.75ZM5 0.25C3.67392 0.25 2.40215 0.776784 1.46447 1.71447C0.526784 2.65215 0 3.92392 0 5.25L0 12.75C0 14.0761 0.526784 15.3479 1.46447 16.2855C2.40215 17.2232 3.67392 17.75 5 17.75H95C96.3261 17.75 97.5978 17.2232 98.5355 16.2855C99.4732 15.3479 100 14.0761 100 12.75V5.25C100 3.92392 99.4732 2.65215 98.5355 1.71447C97.5978 0.776784 96.3261 0.25 95 0.25H5Z" fill="#411F1F"/>
</svg>
